<svg xmlns="http://www.w3.org/2000/svg" viewBox="0 0 1000 1000" width="1000" height="1000">
    
    <defs>
      <radialGradient id="goldRadial" cx="35%" cy="30%" r="75%">
        <stop offset="0%" stop-color="#F0D48A"/>
        <stop offset="55%" stop-color="#D4AF6A"/>
        <stop offset="100%" stop-color="#A87C3F"/>
      </radialGradient>
      <linearGradient id="goldLine" x1="0%" y1="0%" x2="100%" y2="100%">
        <stop offset="0%" stop-color="#F0D48A" stop-opacity="0.95"/>
        <stop offset="100%" stop-color="#A87C3F" stop-opacity="0.55"/>
      </linearGradient>
      <radialGradient id="bgGlow" cx="50%" cy="42%" r="65%">
        <stop offset="0%" stop-color="#15171C"/>
        <stop offset="100%" stop-color="#0B0C0F"/>
      </radialGradient>
      <filter id="softGlow" x="-60%" y="-60%" width="220%" height="220%">
        <feGaussianBlur stdDeviation="7" result="blur"/>
        <feMerge>
          <feMergeNode in="blur"/>
          <feMergeNode in="SourceGraphic"/>
        </feMerge>
      </filter>
    </defs>
    
    
    <circle cx="500.0" cy="490.0" r="396.0" fill="none" stroke="#A87C3F" stroke-opacity="0.35" stroke-width="1.5"/>
    <path d="M 500.00,190.00 L 759.81,340.00 L 759.81,640.00 L 500.00,790.00 L 240.19,640.00 L 240.19,340.00 Z" fill="none" stroke="url(#goldLine)" stroke-width="2.2" stroke-linejoin="round" opacity="0.85"/>
    <line x1="500.00" y1="490.00" x2="500.00" y2="190.00" stroke="url(#goldLine)" stroke-width="1.6" opacity="0.55"/><line x1="500.00" y1="490.00" x2="759.81" y2="340.00" stroke="url(#goldLine)" stroke-width="1.6" opacity="0.55"/><line x1="500.00" y1="490.00" x2="759.81" y2="640.00" stroke="url(#goldLine)" stroke-width="1.6" opacity="0.55"/><line x1="500.00" y1="490.00" x2="500.00" y2="790.00" stroke="url(#goldLine)" stroke-width="1.6" opacity="0.55"/><line x1="500.00" y1="490.00" x2="240.19" y2="640.00" stroke="url(#goldLine)" stroke-width="1.6" opacity="0.55"/><line x1="500.00" y1="490.00" x2="240.19" y2="340.00" stroke="url(#goldLine)" stroke-width="1.6" opacity="0.55"/>
    <circle cx="500.00" cy="190.00" r="38.00" fill="none" stroke="#D4AF6A" stroke-opacity="0.4" stroke-width="1"/><circle cx="759.81" cy="340.00" r="32.30" fill="none" stroke="#D4AF6A" stroke-opacity="0.4" stroke-width="1"/><circle cx="759.81" cy="640.00" r="41.80" fill="none" stroke="#D4AF6A" stroke-opacity="0.4" stroke-width="1"/><circle cx="500.00" cy="790.00" r="32.30" fill="none" stroke="#D4AF6A" stroke-opacity="0.4" stroke-width="1"/><circle cx="240.19" cy="640.00" r="38.00" fill="none" stroke="#D4AF6A" stroke-opacity="0.4" stroke-width="1"/><circle cx="240.19" cy="340.00" r="32.30" fill="none" stroke="#D4AF6A" stroke-opacity="0.4" stroke-width="1"/>
    <circle cx="500.00" cy="190.00" r="20.00" fill="url(#goldRadial)"/><circle cx="759.81" cy="340.00" r="17.00" fill="url(#goldRadial)"/><circle cx="759.81" cy="640.00" r="22.00" fill="url(#goldRadial)"/><circle cx="500.00" cy="790.00" r="17.00" fill="url(#goldRadial)"/><circle cx="240.19" cy="640.00" r="20.00" fill="url(#goldRadial)"/><circle cx="240.19" cy="340.00" r="17.00" fill="url(#goldRadial)"/>
    <circle cx="500.00" cy="490.00" r="28.00" fill="url(#goldRadial)" filter="url(#softGlow)"/>
    </svg>